<svg xmlns="http://www.w3.org/2000/svg" viewBox="0 0 534.76 215"><defs><style>.cls-1{fill:#fff;}</style></defs><g id="Layer_2" data-name="Layer 2"><g id="Layer_1-2" data-name="Layer 1"><path d="M0,0V215H534.76V0ZM527.67,208.7H7.09V6.3H527.67Z"/><path class="cls-1" d="M7.09,208.7H527.67V6.3H7.09ZM13.38,15h508V200h-508Z"/><path d="M507.48,28.4a1.22,1.22,0,0,0-.26-.8,1.4,1.4,0,0,0-.73-.51,10.37,10.37,0,0,0-2.36-.15h-.89v3h.89a11,11,0,0,0,2.36-.14,1.42,1.42,0,0,0,.73-.52A1.33,1.33,0,0,0,507.48,28.4Z"/><path d="M509.7,23.43a8.3,8.3,0,0,0-8.08,0,7.72,7.72,0,0,0-3,3,8.26,8.26,0,0,0,0,8.22,7.86,7.86,0,0,0,3,3,8.2,8.2,0,0,0,8.16,0,7.86,7.86,0,0,0,3-3,8.21,8.21,0,0,0,0-8.22A7.73,7.73,0,0,0,509.7,23.43Zm-2,12.62-.91-1.76a7.33,7.33,0,0,0-1.41-2.23,2.44,2.44,0,0,0-1.52-.46h-.57v4.45h-2.2V25.22h5.66a4.19,4.19,0,0,1,1.7.43,2.67,2.67,0,0,1,1,1,3,3,0,0,1,.4,1.55,2.84,2.84,0,0,1-.76,2,3.51,3.51,0,0,1-2.15,1,2.77,2.77,0,0,1,.76.4,6.64,6.64,0,0,1,.68.9c.08.11.35.55.8,1.32L510.46,36Z"/><path d="M521.38,15h-508V200h508ZM419.78,56.31c.66-7.09,3.45-12.16,6.3-16.93h62.6c.57.82,2,3.68,2.75,5.12,2.72,5.23,5.31,12,4.34,19.69-3,0-5-.06-5-.06-.34-1.5-.38-4.45-2.44-6s-4.88-1.44-5.59-3.8a27.21,27.21,0,0,1-.4-3.25c.08-2.24-.67-3.8-1.85-4.44a6.15,6.15,0,0,0-4.41-.14c-1.08.47-1.93,2.88-1.93,3.58s.44,2.43-.43,3.79c-.94,2.52-3.07,1.85-5.12,3.2-2.47,1.63-3.23,4-4.33,7.1H432.38c-3.19,0-10.48.61-12.21-.4-1.32-1.73-.61-5.17-.4-7.46Zm69.07,7.88H478.26c0-3.32,2.37-6,5.29-6s5.29,2.68,5.29,6Zm-11.4,0H466.87c0-3.32,2.37-6,5.29-6s5.28,2.68,5.28,6Zm-92.72,8.66H408V88.6H384.72ZM300.52,39.5c0,.13,20,.13,20,0v71.27H300.8C300.73,110.83,300.38,39.55,300.52,39.5Zm-155.21-.16C162.67,39.15,181.8,38,189,48s4.36,30.13-7.09,33.08c0,0,11.1,23.22,11.42,23.62,2-8.94,14.71-60.54,15.75-65.36h23.63c0,.13,15.35,71.41,15.35,71.67H228c-.58-2.76-1.24-6.75-1.58-9.06h-13c-.32,2.37-1.57,8.8-1.57,9.06H175.23L165,83a1.2,1.2,0,0,0-.79-.79c.63,8.85.42,19.25.39,28.75H145.31Zm-36.23,0h19.3V94.07h14.56V111H109.08Zm-77.18,0C49.66,39.09,69.16,38.43,76,48c6.23,8.7,3.39,25.19-7.87,26,3.43,1.08,3.75,1.13,5.51,2.36a17.78,17.78,0,0,1,5.51,6.3c1.5,3.5,1.48,9.62.4,13.39-5.33,18.52-24.51,15.23-47.65,15ZM59.76,160.5c-2.17,8.75-5.59,13.61-14.18,15.75-5.65,1.42-10.53-1.38-14.56-2V156.5a32.2,32.2,0,0,0,5,4.25c1.17.79,7.08,2,8.35.42s2-2.07.4-4.67c-4.61-4.24-11-8.23-13.39-14.57-4.35-11.53,4.09-22.64,12.21-24.8,5.85-1.57,10.76,1.19,15,2.35v17.34H58.2c-1.34-2.67-5.49-5.55-7.87-5.91a3.53,3.53,0,0,0-4.25,2.61,2.54,2.54,0,0,0-.09.54c-.14,2.32,1.53,3.53,2.76,4.72,3.75,3.64,8.47,6.2,10.63,11.42C60.38,152.71,60.46,157.63,59.76,160.5Zm20.62-3.78v18.91h-15V118.14c14.66-.23,29-.84,34.65,7.86,1.72,2.62,2.1,4.88,2.37,8.67C103.46,149.76,94.52,156.94,80.38,156.72Zm23.23-45.67H83.88c-.07,0-.42-71.32-.29-71.33s20,.13,20,0Zm29.1,20.45h-13v8.27h11.82v13.39H119.71v8.66h13v13.79H104.38V118.14h28.36Zm32.42,29c-2.16,8.75-5.58,13.61-14.17,15.75-5.66,1.42-10.54-1.38-14.57-2V156.5a31.67,31.67,0,0,0,5,4.25c1.16.79,7.08,2,8.35.42s2-2.07.39-4.67c-4.61-4.24-11-8.23-13.39-14.57-4.35-11.53,4.09-22.64,12.21-24.8,5.85-1.57,10.77,1.19,15,2.35v17.34h-.39c-1.35-2.67-5.5-5.55-7.88-5.91a3.52,3.52,0,0,0-4.24,2.6,2.63,2.63,0,0,0-.09.55c-.15,2.32,1.52,3.53,2.75,4.72,3.75,3.64,8.48,6.2,10.64,11.42C165.77,152.71,165.83,157.63,165.13,160.5Zm18,15.18h-15V118.14h15Zm29.64,0c-.36-1.88-1.18-7.22-1.18-7.48H201.38c-.39,2.49-.78,5-1.18,7.48H184.38c2.29-10.18,12.29-51.08,13.38-57.48h18.9q5.91,28.73,11.81,57.48Zm43.6,0H230V118.14h15v43.7h11.41Zm-7.48-64.58V39.38c16.4-.13,29.12.35,38.2,7.09,14.45,10.71,13.9,41.68,3.15,55.91-7.24,9.56-24.36,8.84-41.37,8.67Zm26,64.58h-15V118.14h15Zm32.69-14.88c-2.2,8.7-5.6,13.6-14.2,15.75-5.65,1.41-10.53-1.39-14.56-2V156.86a32.14,32.14,0,0,0,5,4.24c1.17.79,7.08,2,8.35.43s2-2.08.39-4.67c-4.61-4.24-11-8.25-13.39-14.58-4.34-11.53,4.1-22.64,12.21-24.8,5.86-1.56,10.77,1.2,15,2.36v17.33H306c-1.36-2.67-5.5-5.54-7.88-5.91a3.53,3.53,0,0,0-4.25,2.61,2.54,2.54,0,0,0-.09.54c-.15,2.33,1.53,3.53,2.76,4.72,3.75,3.64,8.48,6.2,10.63,11.43C308.21,153.05,308.28,158,307.58,160.8Zm33.8-28.88h-8.66v43.31c-.43.36,0,0-.4.4H317.38V146.09c0-4.34.1-10.22.19-14.17h-8.46V118.14h32.27Zm32.68-.4h-13v8.22h11.77v13.39H361.1v8.66h13v13.79H354.8c-2.91,0-4.79,0-9.25,0,0-19,.19-38.52.19-57.54h28.35Zm-19.68-19.3c-6.81,1.62-13.54-1.33-16.93-3.54-11-7.21-18.69-27.19-13.39-46.46,2.38-8.66,6.57-16.63,13.39-20.87,2.69-1.68,4.33-2.41,9.84-3.15a23.56,23.56,0,0,1,13.39,2c14.47,6.35,21.14,32.14,14.58,52C371.92,102.28,365.38,109.62,354.38,112.22ZM417,175.63H402.44c-.94-2.78-2.19-6.74-2.75-8.28-2.08-5.6-8-21.38-8.26-24,0,9.66.38,24.55.38,32.3H377.24V118.14h14.57q5.71,16.53,11.42,33.07H404c-.72-9.94-.37-21.43-.89-33.07H417Zm7.29-65.81c-1.6-2.82-.62-14.7-4.63-14.92-1.73-.1-4.5-.2-6.2-2.36s-.53-17.68-.39-21.27,4.38-3.28,4.72-3.54h76.39c2.6,0,5.26.42,5.52,3.94s.58,17,0,20.87-8.78,1.19-9.45,4.33-1.21,12-2.66,13.93-19.2,2.85-20.7-.3c-1.09-2.29-1.34-8.62-1.93-12.59-.28-1.93-1.22-2.8-1.37-3.4-5.56,0-13.45-.1-17.61-.21-.13.57-1.29,2.18-1.44,3.76-.39,4.32-.88,10.93-1.53,11.81-1.09,3.06-17.25,2.49-18.7-.05Zm32.1,65.81c-.36-1.89-1.18-7.23-1.18-7.49H445c-.39,2.49-.79,5-1.18,7.49H428c2.34-10.19,12.34-51.13,13.39-57.49h18.95q5.91,28.74,11.81,57.49ZM502,161c-2.17,8.74-5.59,13.6-14.17,15.74-5.66,1.42-10.55-1.39-14.57-2V157.07a32.14,32.14,0,0,0,5,4.24c1.17.79,7.08,2,8.35.43s2-2.08.39-4.67c-4.6-4.24-11-8.25-13.39-14.57-4.33-11.54,4.1-22.65,12.22-24.81,5.85-1.56,10.77,1.19,15,2.36v17.32h-.4c-1.34-2.66-5.5-5.53-7.87-5.9a3.52,3.52,0,0,0-4.25,2.59,2.62,2.62,0,0,0-.09.56c-.14,2.33,1.53,3.53,2.76,4.72,3.75,3.65,8.47,6.19,10.63,11.43,1,2.49,1.1,7.41.4,10.24ZM514.5,35.67a9.76,9.76,0,0,1-3.77,3.77,10.23,10.23,0,0,1-10.16,0,9.5,9.5,0,0,1-3.77-3.77,10.18,10.18,0,0,1,0-10.21,9.46,9.46,0,0,1,3.79-3.76,10.31,10.31,0,0,1,10.07,0,9.48,9.48,0,0,1,3.81,3.8,10.23,10.23,0,0,1,0,10.21Z"/><path class="cls-1" d="M360.7,40.17a23.56,23.56,0,0,0-13.39-2c-5.51.74-7.15,1.47-9.84,3.15-6.82,4.24-11,12.21-13.39,20.87-5.3,19.27,2.35,39.25,13.39,46.46,3.39,2.21,10.12,5.16,16.93,3.54,11-2.6,17.52-9.94,20.88-20.08C381.84,72.31,375.17,46.5,360.7,40.17ZM352,94.11a5,5,0,0,1-5.11-.79c-5.39-3.79-5.4-25.69-2.37-32.68.91-2.1,1.29-2.83,3-3.67a5.93,5.93,0,0,1,5.69.12C359.82,60.63,359.76,91.33,352,94.11Z"/><path class="cls-1" d="M79.55,96.08c1.08-3.77,1.1-9.89-.4-13.39a17.78,17.78,0,0,0-5.51-6.3c-1.76-1.23-2.08-1.28-5.51-2.36,11.26-.8,14.1-17.29,7.87-26-6.84-9.57-26.34-8.91-44.1-8.66V111C55,111.31,74.22,114.6,79.55,96.08Zm-28.36-41a13.79,13.79,0,0,1,6.87,1.76c1.71,1,1.89,6.23,1.4,7.3S58,67.28,51.19,67.29Zm0,26.78c3.2-.07,5.44.32,7.09,1.18,2.87,1.5,2.67,7,2,9s-3.9,3.54-9.06,3.55Z"/><path class="cls-1" d="M83.59,39.72c-.13,0,.22,71.29.29,71.33h19.69V39.77C103.6,39.85,83.58,39.85,83.59,39.72Z"/><path class="cls-1" d="M142.94,94.11H128.38V39.38h-19.3v71.67h33.86Z"/><path class="cls-1" d="M164.21,82.3a1.2,1.2,0,0,1,.79.79l10.23,28h36.63c0-.26,1.25-6.69,1.57-9.06h13c.34,2.31,1,6.3,1.58,9.06h20.07c0-.26-15.35-71.54-15.35-71.67H209.1c-1,4.82-13.75,56.42-15.75,65.36-.32-.4-11.38-23.59-11.42-23.62,11.45-3,14.35-23,7.09-33.08s-26.35-8.85-43.71-8.66v71.67H164.6C164.63,101.55,164.84,91.15,164.21,82.3Zm56.31-24.42h.39c.4,4.66,2.34,22.35,3.15,28.75h-7.87Q218.38,72.26,220.52,57.88ZM164.6,55.13a11.07,11.07,0,0,1,5.62,1.18c2.37,1.5,3,6.19,3.29,8s-.63,8.34-8.91,8.12Z"/><path class="cls-1" d="M290.22,102.38c10.75-14.23,11.3-45.2-3.15-55.91-9.08-6.74-21.8-7.22-38.2-7.09v71.67C265.88,111.22,283,111.94,290.22,102.38Zm-22-8.66V57.5c14.07.07,14,35.84-.05,36.22Z"/><path class="cls-1" d="M432.38,64.19h31.9c1.1-3.1,1.86-5.47,4.33-7.1,2-1.35,4.18-.68,5.12-3.2.87-1.36.43-3.1.43-3.79s.85-3.11,1.93-3.58a6.11,6.11,0,0,1,4.45.13c1.18.64,1.93,2.2,1.85,4.44a27.21,27.21,0,0,0,.4,3.25c.71,2.36,3.68,2.36,5.59,3.8s2.1,4.49,2.44,6c0,0,2,.09,5,.06,1-7.7-1.62-14.46-4.34-19.69-.73-1.44-2.18-4.3-2.75-5.12H426.07c-2.85,4.77-5.64,9.84-6.3,16.93-.21,2.29-.92,5.73.39,7.48C421.89,64.8,429.18,64.19,432.38,64.19ZM431,49.63a4.11,4.11,0,0,1,4.11-4.13h1.69a4.11,4.11,0,0,1,4.12,4.12v6.57a4.11,4.11,0,0,1-4.12,4.12h-1.68A4.11,4.11,0,0,1,431,56.2h0Z"/><path d="M173.51,64.33c-.24-1.83-.92-6.52-3.29-8a11.07,11.07,0,0,0-5.62-1.18V72.5C172.88,72.67,173.73,66.16,173.51,64.33Z"/><path d="M59.46,64.19c.49-1.07.31-6.32-1.4-7.3a13.79,13.79,0,0,0-6.87-1.76V67.34C58,67.33,59,65.25,59.46,64.19Z"/><path d="M353.22,57.09a5.93,5.93,0,0,0-5.69-.12c-1.68.84-2.06,1.57-3,3.67-3,7-3,28.89,2.37,32.68a5,5,0,0,0,5.11.79C359.76,91.33,359.82,60.63,353.22,57.09Z"/><path d="M268.17,57.5V93.73C282.24,93.34,282.29,57.57,268.17,57.5Z"/><path d="M220.91,57.88h-.39q-2.18,14.38-4.33,28.75h7.87C223.25,80.23,221.31,62.5,220.91,57.88Z"/><path class="cls-1" d="M443,109.87c.65-.88,1.14-7.49,1.53-11.81.15-1.58,1.31-3.19,1.44-3.76,4.16.11,12,.16,17.61.21.15.6,1.09,1.47,1.37,3.4.59,4,.84,10.3,1.93,12.59,1.51,3.15,19.27,2.21,20.72.3s2-10.79,2.66-13.93,8.87-.49,9.45-4.33.26-17.35,0-20.87-2.92-3.94-5.52-3.94H417.8c-.34.26-4.58,0-4.72,3.54s-1.32,19.1.39,21.27,4.47,2.26,6.2,2.36c4,.22,3,12.1,4.63,14.92C425.75,112.36,441.91,112.93,443,109.87Zm44.57-35.48a4.89,4.89,0,1,1-4.89,4.89,4.89,4.89,0,0,1,4.89-4.89Zm-62.81,9.69a4.89,4.89,0,1,1,4.9-4.89,4.89,4.89,0,0,1-4.9,4.89Z"/><path class="cls-1" d="M408,72.85H384.72V88.6H408Z"/><path d="M60.25,92.14c.7-2,.9-7.55-2-9-1.65-.86-3.89-1.25-7.09-1.18V95.74C56.38,95.68,59.55,94.19,60.25,92.14Z"/><path class="cls-1" d="M491,139.34c-1.23-1.19-2.9-2.39-2.76-4.72a3.52,3.52,0,0,1,3.78-3.24,5,5,0,0,1,.56.09c2.37.37,6.53,3.24,7.87,5.9h.4V120.05c-4.19-1.17-9.11-3.92-15-2.36-8.12,2.16-16.55,13.27-12.22,24.81,2.39,6.32,8.79,10.33,13.39,14.57,1.58,2.59.88,3.11-.39,4.67s-7.18.36-8.35-.43a32.61,32.61,0,0,1-5-4.24v17.72c4,.57,8.91,3.38,14.57,2,8.58-2.14,12-7,14.17-15.74.7-2.83.64-7.75-.4-10.24C499.46,145.5,494.74,143,491,139.34Z"/><path class="cls-1" d="M100,126c-5.7-8.7-20-8.09-34.65-7.86v57.49h15V156.72c14.18.22,23.12-7,22-22.05C102.12,130.88,101.74,128.62,100,126ZM85.7,141.86a8.12,8.12,0,0,1-5.36,1.87v-13a15.31,15.31,0,0,1,4.32.4C88.83,135.28,86.94,141.4,85.7,141.86Z"/><path class="cls-1" d="M104.38,175.63h28.36V161.84h-13v-8.66h11.82V139.79H119.71V131.5h13V118.14H104.38Z"/><path class="cls-1" d="M168.15,175.63h15V118.14h-15Z"/><path class="cls-1" d="M244.93,118.14h-15v57.49h26.45V161.84H244.93Z"/><path class="cls-1" d="M259.89,175.63h15V118.14h-15Z"/><path class="cls-1" d="M309.12,131.92h8.46c-.09,4-.19,9.83-.19,14.17v29.54h15c.36-.44,0,0,.4-.4V131.92h8.59V118.14H309.12Z"/><path class="cls-1" d="M345.55,175.68c4.46-.08,6.34-.05,9.25-.05h19.29V161.84h-13v-8.66H372.9V139.79H361.14c-.06-3.92-.07-5.67,0-8.22,3.42-.08,9-.09,13,0V118.14h-28.4C345.74,137.16,345.55,156.66,345.55,175.68Z"/><path class="cls-1" d="M404,151.21h-.79q-5.7-16.54-11.42-33.07H377.24v57.49h14.57c0-7.75-.41-22.64-.38-32.3.28,2.64,6.18,18.42,8.26,24,.56,1.54,1.81,5.5,2.75,8.28H417V118.14H403.13C403.65,129.78,403.3,141.27,404,151.21Z"/><path class="cls-1" d="M441.43,118.14c-1.05,6.36-11.05,47.3-13.39,57.49h15.75c.39-2.5.79-5,1.18-7.49h10.24c0,.26.82,5.6,1.18,7.49h15.75q-5.89-28.75-11.81-57.49Zm5.9,37.79c.72-5.35,3.34-20.91,3.55-23.23q1.19,11.63,2.36,23.23Z"/><path d="M80.38,130.73v13a8.12,8.12,0,0,0,5.36-1.87c1.24-.46,3.13-6.58-1-10.73A15.22,15.22,0,0,0,80.38,130.73Z"/><path d="M447.38,155.93h5.91q-1.19-11.61-2.36-23.23C450.67,135,448.05,150.58,447.38,155.93Z"/><path class="cls-1" d="M320.49,110.86V39.59c0,.08-20,.08-20,0s.21,71.29.28,71.32Z"/><path d="M424.76,74.3a4.89,4.89,0,1,0,4.9,4.89,4.89,4.89,0,0,0-4.9-4.89Z"/><path d="M487.57,84.17a4.89,4.89,0,1,0-4.89-4.89,4.89,4.89,0,0,0,4.89,4.89Z"/><path d="M435.09,60.32h1.68a4.11,4.11,0,0,0,4.12-4.12V49.63a4.11,4.11,0,0,0-4.11-4.13h-1.69A4.11,4.11,0,0,0,431,49.61h0v6.57a4.11,4.11,0,0,0,4.11,4.13Z"/><path class="cls-1" d="M472.16,58.16c-2.92,0-5.29,2.71-5.29,6h10.57C477.44,60.87,475.08,58.16,472.16,58.16Z"/><path class="cls-1" d="M483.55,58.17c-2.92,0-5.29,2.7-5.29,6h10.58C488.84,60.87,486.46,58.17,483.55,58.17Z"/><path class="cls-1" d="M296.55,139.13c-1.23-1.19-2.91-2.39-2.76-4.72a3.54,3.54,0,0,1,3.8-3.24l.54.09c2.38.37,6.52,3.24,7.88,5.91h.37V119.84c-4.19-1.16-9.1-3.92-15-2.36-8.11,2.16-16.55,13.27-12.21,24.8,2.39,6.33,8.78,10.34,13.39,14.58,1.58,2.59.88,3.11-.39,4.67s-7.18.36-8.35-.43a32.14,32.14,0,0,1-5-4.24v17.72c4,.58,8.91,3.38,14.56,2,8.58-2.15,12-7,14.18-15.75.7-2.83.63-7.75-.4-10.24C305,145.33,300.3,142.77,296.55,139.13Z"/><path class="cls-1" d="M154.1,138.79c-1.23-1.19-2.9-2.4-2.75-4.72a3.52,3.52,0,0,1,3.78-3.24,4.85,4.85,0,0,1,.55.09c2.38.36,6.53,3.24,7.88,5.91H164V119.5c-4.19-1.16-9.11-3.92-15-2.35-8.12,2.16-16.56,13.27-12.21,24.8,2.38,6.34,8.78,10.33,13.39,14.57,1.58,2.6.88,3.11-.39,4.67s-7.19.37-8.35-.42a31.67,31.67,0,0,1-5-4.25v17.72c4,.59,8.91,3.39,14.57,2,8.59-2.14,12-7,14.17-15.75.7-2.82.64-7.74-.39-10.24C162.58,145,157.85,142.43,154.1,138.79Z"/><path class="cls-1" d="M48.73,138.79c-1.23-1.19-2.9-2.4-2.76-4.72a3.54,3.54,0,0,1,3.8-3.24,5.07,5.07,0,0,1,.54.09c2.38.36,6.53,3.24,7.87,5.91h.39V119.5c-4.19-1.16-9.1-3.92-15-2.35C35.45,119.31,27,130.42,31.36,142c2.38,6.34,8.78,10.33,13.39,14.57,1.58,2.6.88,3.11-.4,4.67s-7.18.37-8.35-.42a32.2,32.2,0,0,1-5-4.25v17.72c4,.59,8.91,3.39,14.56,2,8.59-2.14,12-7,14.18-15.75.7-2.82.63-7.74-.4-10.24C57.2,145,52.48,142.43,48.73,138.79Z"/><path class="cls-1" d="M197.79,118.2c-1.09,6.4-11.09,47.3-13.38,57.48h15.74c.4-2.49.79-5,1.18-7.48h10.24c0,.26.82,5.6,1.18,7.48H228.5q-5.91-28.74-11.81-57.48ZM203.7,156c.71-5.35,3.33-20.92,3.54-23.24q1.19,11.63,2.36,23.24Z"/><path d="M203.7,156h5.9q-1.17-11.62-2.36-23.24C207,135.08,204.38,150.65,203.7,156Z"/><path class="cls-1" d="M510.68,21.7a10.31,10.31,0,0,0-10.07,0,9.43,9.43,0,0,0-3.79,3.8,10.18,10.18,0,0,0,0,10.21,9.5,9.5,0,0,0,3.77,3.77,10.23,10.23,0,0,0,10.16,0,9.76,9.76,0,0,0,3.77-3.77,10.23,10.23,0,0,0,0-10.21A9.49,9.49,0,0,0,510.68,21.7Zm2.09,13a7.86,7.86,0,0,1-3,3,8.2,8.2,0,0,1-8.16,0,7.86,7.86,0,0,1-3-3,8.26,8.26,0,0,1,0-8.22,7.72,7.72,0,0,1,3-3,8.3,8.3,0,0,1,8.08,0,7.72,7.72,0,0,1,3,3,8.21,8.21,0,0,1,0,8.22Z"/><path class="cls-1" d="M508.38,32.5a6.38,6.38,0,0,0-.73-.83,2.77,2.77,0,0,0-.76-.4,3.51,3.51,0,0,0,2.15-1,2.84,2.84,0,0,0,.76-2,3,3,0,0,0-.4-1.55,2.67,2.67,0,0,0-1-1,4.19,4.19,0,0,0-1.7-.43H501V36.05h2.2V31.6h.57a2.44,2.44,0,0,1,1.52.46,7.21,7.21,0,0,1,1.51,2.23l.91,1.76h2.72l-1.28-2.19C508.74,33.09,508.47,32.65,508.38,32.5Zm-1.9-2.79a11,11,0,0,1-2.36.14h-.89v-3h.89a10.37,10.37,0,0,1,2.36.15,1.4,1.4,0,0,1,.73.51,1.22,1.22,0,0,1,.26.8,1.3,1.3,0,0,1-.26.83,1.39,1.39,0,0,1-.72.61Z"/></g></g></svg>