<svg id="Layer_1" data-name="Layer 1" xmlns="http://www.w3.org/2000/svg" viewBox="0 0 309.23 63.83"><defs><style>.cls-1{fill:#f89728;}</style></defs><path class="cls-1" d="M37.1,8.15h0a23.79,23.79,0,0,1,5.11.52A33,33,0,0,1,46.85,10v-2L57.07,16.4V19a16.12,16.12,0,0,0-8.86-5.2,21.38,21.38,0,0,0-10.78.24,18.59,18.59,0,0,0-9.14,6q-3.86,4.45-3.85,11.86A19,19,0,0,0,36.3,50.2,19.58,19.58,0,0,0,47,51.27a18,18,0,0,0,10.08-5.43,31.3,31.3,0,0,0,0,3.47A29.81,29.81,0,0,1,47.93,54,34.47,34.47,0,0,1,37.1,55.77a24.5,24.5,0,0,1-17.67-6.89,22.33,22.33,0,0,1-7.17-16.73A21,21,0,0,1,14.32,23a25.2,25.2,0,0,1,5.48-7.54,26.56,26.56,0,0,1,7.92-5.16A26.19,26.19,0,0,1,37.1,8.15ZM45,18.46a11.6,11.6,0,0,1,9,4.31A15,15,0,0,1,57.72,33a14.73,14.73,0,0,1-3.79,10.22,11.76,11.76,0,0,1-18,0A14.84,14.84,0,0,1,32.13,33a15.09,15.09,0,0,1,3.75-10.22A11.64,11.64,0,0,1,45,18.46Zm.38,2.72a2.41,2.41,0,0,0-2.72,2.72V42.46a2.41,2.41,0,0,0,2.72,2.72,2.41,2.41,0,0,0,2.72-2.72V23.9a2.41,2.41,0,0,0-2.72-2.72Zm13.87-1.69H70.85v1.69q6.93-3.37,10.64-2.3a7.71,7.71,0,0,1,5.2,5V44.24h2.72v2.35H77V24.27c-.32-1-1.35-1.65-3.1-2-1.81,0-2.72.78-2.72,2.34V44.24h2.35v2.35H59.22V44.24h2.35V21.93H59.22Zm31.88.38,12-11.25V19.87h2.81v2.34H103.1v22h2.62v2.35H91.1V44.24h2.34v-22H91.1Zm16.12,0h11.63V44.24h2.72v2.35H107.22V44.24h2.72V22h-2.72ZM114,8.81a6.07,6.07,0,0,1,3.94,1.36,4,4,0,0,1,1.69,3.23,4.13,4.13,0,0,1-1.69,3.33A6.12,6.12,0,0,1,114,18.09a6.06,6.06,0,0,1-4-1.36,4.19,4.19,0,0,1-1.64-3.33A4.08,4.08,0,0,1,110,10.17,6,6,0,0,1,114,8.81Zm9.66,11.06h11.63V21q6.93-3.37,10.64-2.25a7.85,7.85,0,0,1,5.2,5V44.24h2.72v2.35H141.44V24.09c-.31-1.07-1.34-1.69-3.09-1.88-1.81,0-2.72.75-2.72,2.25V44.24H138v2.35H123.63V44.24H126v-22h-2.34Zm43.22-.75a13.78,13.78,0,0,1,9.94,4.36,11.5,11.5,0,0,1,3.56,10.26H164v6.75q1.59,5.63,6.32,4.74t6.8-7.36h2.63a15,15,0,0,1-4.93,7.36,12.37,12.37,0,0,1-8,2.86,12.67,12.67,0,0,1-9.61-4.27,14.47,14.47,0,0,1-4-10.26,14.4,14.4,0,0,1,4-10.18A12.69,12.69,0,0,1,166.85,19.12Zm-.1,1.87A2.4,2.4,0,0,0,164,23.71v7.78h5.43V23.71A2.4,2.4,0,0,0,166.75,21Zm14.16-.93h11.63v1.78q6.93-3.48,10.64-2.35a7.85,7.85,0,0,1,5.2,5V44.24h2.72v2.35H198.72V24.84c-.31-.94-1.34-1.57-3.09-1.88-1.81,0-2.72.78-2.72,2.35V44.24h2.34v2.35H180.91V44.24h2.34V23h-2.34Zm31.22.75,12-11.25V20.81h2.81v2.25h-2.81V44.24h2.53v2.35H212.13V44.24h2.25V23.06h-2.25Zm16.69.84c.87-1.38,2.53-2.34,5-2.91a24.06,24.06,0,0,1,7.5-.51,17.43,17.43,0,0,1,6.89,2,5.24,5.24,0,0,1,3.14,4.54V44.15h2.25l.09,2.25-11.25.09V44.9a11.34,11.34,0,0,1-2.34,2,7.37,7.37,0,0,1-3.75.75,7,7,0,0,1-4.83-1.55,9.86,9.86,0,0,1-2.58-3.51,13.06,13.06,0,0,1-1-3.75c-.13-1.19-.19-1.94-.19-2.25a9.39,9.39,0,0,1,.14-2.16,13.85,13.85,0,0,1,1.08-3.7,10,10,0,0,1,2.58-3.47,7,7,0,0,1,4.83-1.55,11.6,11.6,0,0,1,2.67.38,9.71,9.71,0,0,1,3.42,1.78v-4.5a6.25,6.25,0,0,0-5.81-2.21c-2.38.29-5,1.64-7.78,4.08Zm11,7.22c-1.69,0-2.54.9-2.54,2.72v9.28a2.7,2.7,0,0,0,.75,1.92,2.39,2.39,0,0,0,1.79.8c1.56,0,2.34-.91,2.34-2.72V31.59c0-1.82-.78-2.72-2.34-2.72ZM255,8.62h12V44.24h2.53v2.35H255V44.24h2.25V10.87H255Zm29.25-.47a12.27,12.27,0,0,1,9,3.75,12.27,12.27,0,0,1,3.75,9,12.72,12.72,0,0,1-12.75,12.75,12.29,12.29,0,0,1-9-3.7,12.32,12.32,0,0,1-3.71-9,12.35,12.35,0,0,1,3.71-9A12.22,12.22,0,0,1,284.22,8.15Zm0,.56a11.68,11.68,0,0,0-8.62,3.61A11.79,11.79,0,0,0,272,20.9a11.87,11.87,0,0,0,3.56,8.67,11.65,11.65,0,0,0,8.62,3.61,11.83,11.83,0,0,0,8.68-3.61,11.83,11.83,0,0,0,3.6-8.67,11.75,11.75,0,0,0-3.6-8.58A11.87,11.87,0,0,0,284.22,8.71Zm-8.15,15.56-2.35.75-.09-.28,2.06-.65L275.32,23l.28-.09Zm-1.5-2.81a.41.41,0,0,1-.28.1h0a.56.56,0,0,1-.38-.1.72.72,0,0,1-.09-.28.72.72,0,0,0,.09-.28c.13-.13.22-.19.28-.19a.53.53,0,0,1,.38.19c.06,0,.09.09.09.28a.38.38,0,0,1-.09.28ZM276.72,16a.73.73,0,0,0-.28-.46l.19-.19c.25.25.37.44.37.56a1.72,1.72,0,0,1-.09.66,1.69,1.69,0,0,1-.47.47.69.69,0,0,1-.56.09,1.46,1.46,0,0,1-.66-.19,2.29,2.29,0,0,1-.47-.37.81.81,0,0,1-.18-.57,1.63,1.63,0,0,1,.09-.65l.47-.47h.66l-.1.28a.79.79,0,0,0-.47.09c-.12,0-.22.1-.28.29a.73.73,0,0,0-.09.46.53.53,0,0,0,.19.38,1.5,1.5,0,0,0,.37.28,1.56,1.56,0,0,0,.47.19c.25,0,.41,0,.47-.1l.28-.28a1.06,1.06,0,0,0,.09-.47Zm.57,10.41-2.54.56-.18-.28,1.5-2.15.18.28-.46.65.56.85.75-.19Zm-1.22,0-.47-.75-.38.66-.37.37a.46.46,0,0,0,.19,0l.28-.15Zm2.15.66-1.5,1.5.57.56-.29.19-1.31-1.41.28-.19.57.57L278,26.9ZM277,14.81a.42.42,0,0,1-.46-.29h0a.89.89,0,0,1-.47-.84,1.12,1.12,0,0,1,.28-.84,2.08,2.08,0,0,1,.56-.38,1.91,1.91,0,0,1,.66.1l.56.28.28.56a2.19,2.19,0,0,1,.09.66,1,1,0,0,1-.37.46,1,1,0,0,1-.47.38,1.72,1.72,0,0,1-.66-.09Zm7.22-1.88A8,8,0,0,1,290,15.27a7.63,7.63,0,0,1,2.39,5.63A7.56,7.56,0,0,1,290,26.57a8.38,8.38,0,0,1-11.53,0,7.52,7.52,0,0,1-2.39-5.67,7.59,7.59,0,0,1,2.39-5.63A7.92,7.92,0,0,1,284.22,12.93Zm-7.87.66a1.07,1.07,0,0,0,.37.75.94.94,0,0,0,.66.28.64.64,0,0,0,.56-.28c.19-.07.28-.25.28-.57a1,1,0,0,0-.37-.65.55.55,0,0,0-.47-.28.51.51,0,0,0-.38-.1,1.8,1.8,0,0,0-.37.28.64.64,0,0,0-.28.57Zm7.87-.1a7.34,7.34,0,0,0-5.39,2.21,7.1,7.1,0,0,0-2.2,5.2,7.23,7.23,0,0,0,2.2,5.3,7.33,7.33,0,0,0,5.39,2.2,7.51,7.51,0,0,0,5.39-2.2,7.06,7.06,0,0,0,2.3-5.3,6.94,6.94,0,0,0-2.3-5.2A7.52,7.52,0,0,0,284.22,13.49Zm-5.72,6.85-.09.18-.84.19.18-.94.19-.09h.1l.09-.09.28-.28.28-.1.47-.28h.38l.28-.09.47.09.18.09.57.29v-.38l.28-.28.09-.19.09-.09.19-.19.19-.19.09-.18.19-.1.09-.19.1-.09.28-.19h.09l.1-.28V16.4l-.19-.09h-.75l-.09.09-.1.09h-.28l-.09-.09-.1-.09v-.19h.19l.47-.1v-.28l-.09-.09-.57.28-.18-.19v-.37l.28-.19h.09l1.22-.28h.09l.94-.38V14l.66.75h.28v.38h-.1v.09H285v.38l-.18.09.18.09h.1V16l-.1.1v.28h.19v.19l-.09.18H285V17l.1.1v.28l-.1.09h-.28l.1.09.18.19v.1l-.28.09h-.09v.28h.09v.19h-.09v.09h-.1v.38l.1.09.47.09.84.19H286l.38-.19h.56l.56.19.38.1.19.28.28.18h.09l.1.1h.18l.19-.1H289l.29-.09.18-.09.28-.19.19-.09h.28l.19.09.28.28.1.28v.56l-.1.47v.28l-.28.47v.47l-.09.38V23l.09.1.19.09.09.09h-.47l-.47-.09-.46-.28-.1-.56V22l.1-.28.09-.18.09-.38.19-.47v-.19l-.28-.18-.09-.1H289l-.46.28.18.47v.28l-.18.29-.1.09-.09.37v.57l.09.09V23l.1.1.18.09.1.09.09.19H289v.38l-.18.09-.28.19-.19.37-.28.38L288,25v.19l-.09.19h-.38l-.18.09.09.1h.09v.28h-.93l.09-.47.47-.38.19-.18.18-.28.29-.1.09-.28.09-.09V24l.1-.09v-.09l-.1-.19-.18-.19-.29-.19-.18-.18-.19-.1-.09-.28-.1-.09v-.38l-.09.1v.18h-.19V23l.28.28.19.38.19.19V24l-.19.1-.09.09-.38.28-.28.19-.28.28v.28l-.1.19h-.56v.19h.19l-.09.28h3.75l-.1.28h-9.75v-.28h5.16l.09-.38.1-.09.18-.09.1-.29.09-.09.09-.09h.19l.19-.28h.28l.09-.1.1-.09.28-.19V23.9l-.19-.28-.09-.19-.19-.19v-.09l-.19-.09-.09-.1-.09-.09-.1-.28v-.38l.1-.47h-.75l-.57.19h-.56l-.09-.19h-.19l-1.13-.47-.09.29-.28.09-1.78-.94h-.19l-.09.28-.19.1-.19.18-.09.29V22l-.19-.09h-.09L279,22l.1.1v.09h.28v.28l-.75.57V23l-.1-.37v-.85l.1-.18v-.29l.09-.09L279,21l.38-.47.09-.37.66-.19v.19l.75.19-.75-.75-.47-.19-.75.37-.19.19h-.19v-.09h-.09l-.28.09v.19h.09l.19.09Zm2.25,8.53-1.31,2.06-.28-.19-.09-2.25-.94,1.6-.28-.1,1.22-2.06.28.19.09,2.25,1-1.6Zm-1.21-15.28-1.22-2.07.37-.18,2,1-.84-1.69.18-.09,1.22,2.15-.28.1-2.06-1,.94,1.68Zm3.28,16L282.16,32l-1.69-.56.1-.28,1.4.47.19-.75-1.31-.38.09-.28,1.31.38.19-.75-1.4-.47.09-.28Zm-.57-17.25-.46-2.06-.75.18-.1-.28,1.88-.47V10l-.75.19.56,2.06Zm3,17.34.1,2.44H285l-1.31-1.88.09,1.88h-.37V29.71h.37L285,31.59V29.71Zm-1.5-17.62-.09-2.44h.28l.19,2.44Zm.94-.1.38-2.34h.28l1,2.06.28-1.87.28.09-.37,2.34h-.28l-1-2.06L285,12.09Zm1.5,17.63.38,2.34-.28.1-.47-2.44Zm.94-17.16.94-2.25,1.59.66-.09.28-1.41-.56-.28.65,1.31.57L289,12l-1.21-.47-.29.75,1.41.57-.19.28Zm.47,16.69.65,2.06.75-.28.1.28-1.78.56-.1-.28.75-.18-.65-2.07Zm2.62-1.5,1.41,2-.28.19L289.29,29l1,1.6-.28.18-1.32-2,.28-.18,2.07.84-1-1.59Zm-1-14.34,1.6-1.88.18.28L290.69,14l1.31-1.5.19.28-1.59,1.78-.19-.18.28-2.25-1.31,1.4Zm3.75,13h0a4.51,4.51,0,0,1,.56.84,1.11,1.11,0,0,1-.28.84,2.08,2.08,0,0,1-.56.38,1.33,1.33,0,0,1-.56.09,2.08,2.08,0,0,1-.56-.37.83.83,0,0,1-.47-.47A1.48,1.48,0,0,1,291,27a.4.4,0,0,1,.1-.23,2.45,2.45,0,0,0,.18-.33l.57-.28a1.33,1.33,0,0,1,.56-.09,1.54,1.54,0,0,0,.23.18A.56.56,0,0,0,292.94,26.34Zm.19.93a.81.81,0,0,0-.38-.65,1.55,1.55,0,0,0-.75-.28.81.81,0,0,0-.56.28,1.6,1.6,0,0,0-.19.65c.13.38.29.6.47.66a.63.63,0,0,0,.47.19.25.25,0,0,0,.38,0,.52.52,0,0,0,.37-.19.66.66,0,0,0,.19-.66Zm-1.78-11.9L293,14.06l-.47-.57.18-.18,1.22,1.5-.18.18-.57-.65-1.68,1.31Zm.65.75,2.63-.1.09.29-1.78,1.87-.19-.28.57-.56-.38-.94h-.75Zm.75,8.81a2.15,2.15,0,0,0,.38.47l-.19.28a1.39,1.39,0,0,1-.47-.56,1.17,1.17,0,0,1,.1-.75,1,1,0,0,1,.37-.47.75.75,0,0,1,.56-.19,1.91,1.91,0,0,1,.66.1,2.08,2.08,0,0,1,.56.37,1.39,1.39,0,0,1,.19.56.7.7,0,0,1-.09.57,1.64,1.64,0,0,1-.38.56,1.33,1.33,0,0,1-.56.09v-.28a.56.56,0,0,0,.23-.05.85.85,0,0,1,.24,0,1.54,1.54,0,0,0,.28-.38v-.47a.52.52,0,0,0-.19-.37.36.36,0,0,1-.28-.1l-.19-.18a1.41,1.41,0,0,1-.47-.1.64.64,0,0,0-.46.19l-.29.28v.47Zm.19-6.47,2.35-.56.09.28-2.06.47.28,1.22h-.28Zm.28-2.06.28.75.57-.56c.37-.19.5-.28.37-.28H294Zm.94,5.06a.39.39,0,0,1,.28-.09c.19,0,.28.06.28.19s.16.21.1.28a.36.36,0,0,1-.1.28.38.38,0,0,1-.28.09c-.19,0-.28-.06-.28-.19-.25,0-.28-.09-.09-.28a.39.39,0,0,1,.09-.28Z"/></svg>