<svg xmlns="http://www.w3.org/2000/svg" viewBox="0 0 175.75 25.48"><defs><style>.cls-1{fill:#a90533;fill-rule:evenodd;}</style></defs><g id="Layer_2" data-name="Layer 2"><g id="Layer_1-2" data-name="Layer 1"><path class="cls-1" d="M0,24.58H8.2l5.17-14.15S14.56,5.6,22.66,5.6c7.44,0,6.85,2.72,6.85,3.15S29,11.58,23.2,11.58s-8.42-1-8.42-1l1.25,6s5.62.77,8.15.77c2.23,0,13.48-1.26,13.48-9.14,0-5-6.74-8.2-14.84-8.2C13.37,0,8,3.62,5.6,9.57Z"/><polygon class="cls-1" points="39.51 10.57 34.29 24.58 41.95 24.58 47.17 10.57 39.51 10.57"/><path class="cls-1" d="M74.51,17.23c0,5.63-9.41,8.1-14.84,8.1-2.66,0-12.93-1.47-12.93-7.5s10.22-8,14.34-8c4.62,0,13.43,1.76,13.43,7.39m-13.92-3c-1.85,0-5.7,1-5.7,3.42s3.42,3.21,5.43,3.21,6-1,6-3.37-3.65-3.26-5.77-3.26"/><path class="cls-1" d="M74,24.58h7.5l3-8.11c.21-.68,1.25-2.34,4.51-2.34,3.78,0,3.32,2.3,3.1,2.88l-2.78,7.57h7.4l2.88-7.79s2.39-6.84-9-6.84c-11.69,0-13.37,6-13.37,6Z"/><path class="cls-1" d="M116.24,13.64c4.4,0,4.57,1.36,4.57,1.36s.81.92-4.13.92-6.9-1.19-6.9-1.19a17.89,17.89,0,0,1,6.46-1.09M115.48,10c-5.22,0-14.13,2.17-14.13,8.31,0,5.22,9.72,7.12,12.66,7.12,7.72,0,11.14-1.19,11.14-1.19l1.58-4.35a34.45,34.45,0,0,1-10.81,1.63c-9.68,0-9-4.08-9-4.08s2.66,2.18,9.13,2.18,12.12-1.36,12.12-4S122.69,10,115.48,10"/><path class="cls-1" d="M155.86,24.58h7.44L166,17a2.79,2.79,0,0,1,2.5-2.12h5.82l1.41-4.32H165.26a7.47,7.47,0,0,0-6.09,4.92c-1.84,4.67-3.31,9.09-3.31,9.09"/><path class="cls-1" d="M156.38,15.7c0,2.61-5.66,4-12.12,4s-9.13-2.18-9.13-2.18-.71,4.08,9,4.08a34.56,34.56,0,0,0,10.82-1.63l-1.58,4.35s-3.42,1.19-11.14,1.19c-2.94,0-12.66-1.9-12.66-7.12,0-6.14,8.91-8.31,14.13-8.31,7.2,0,12.72,3,12.72,5.65M138,14.83s2,1.19,6.9,1.19S149,15.1,149,15.1s-.16-1.36-4.56-1.36A17.91,17.91,0,0,0,138,14.83"/></g></g></svg>